<mxfile host="app.diagrams.net" modified="2024-02-25T14:54:13.399Z" agent="Mozilla/5.0 (Windows NT 10.0; Win64; x64) AppleWebKit/537.36 (KHTML, like Gecko) Chrome/121.0.0.0 Safari/537.36" version="23.1.6" etag="4RCwRo-qSumom83NiZkX" type="github">
  <diagram name="Page-1" id="2laAVb5eZ0MIzE3FBNaq">
    <mxGraphModel>
      <root>
        <mxCell id="0" />
        <mxCell id="1" parent="0" />
      </root>
    </mxGraphModel>
  </diagram>
</mxfile>
